<?xml version="1.0" standalone="no"?>
<!DOCTYPE svg PUBLIC "-//W3C//DTD SVG 20010904//EN"
 "http://www.w3.org/TR/2001/REC-SVG-20010904/DTD/svg10.dtd">
<svg version="1.0" xmlns="http://www.w3.org/2000/svg"
 width="1200.000000pt" height="1200.000000pt" viewBox="0 0 1200.000000 1200.000000"
 preserveAspectRatio="xMidYMid meet">

<g transform="translate(0.000000,1200.000000) scale(0.100000,-0.100000)"
fill="#000000" stroke="none">
<path d="M5675 9048 c-170 -99 -416 -242 -545 -318 -129 -75 -390 -227 -580
-337 -190 -110 -463 -269 -607 -352 l-263 -153 -1 -321 c0 -177 -3 -349 -5
-383 l-5 -60 231 -134 c127 -73 232 -136 234 -139 3 -3 -99 -66 -225 -139
l-229 -133 -1 -322 c0 -177 -3 -349 -5 -382 l-5 -61 643 -371 c1398 -806 1688
-973 1693 -973 5 0 1061 611 1555 900 129 75 353 206 498 290 l262 152 1 326
c0 180 2 352 5 383 l5 56 -235 134 c-130 74 -235 136 -235 139 0 3 103 65 229
138 l230 134 1 326 c0 180 2 352 5 383 l5 55 -223 129 c-123 70 -275 158 -338
195 -534 311 -1770 1020 -1777 1019 -4 0 -147 -81 -318 -181z m1154 -1071
l823 -476 -39 -24 c-93 -59 -410 -237 -421 -237 -6 0 -274 151 -594 336 -321
185 -588 338 -594 341 -10 4 -429 -235 -1043 -594 -106 -62 -149 -82 -162 -76
-9 4 -114 64 -233 133 -190 110 -214 127 -199 138 10 7 182 108 383 224 438
254 857 497 1075 625 88 51 165 91 170 89 6 -2 381 -218 834 -479z m-572 -979
c145 -83 260 -155 256 -158 -4 -4 -118 -71 -252 -149 -225 -131 -247 -142
-270 -131 -54 24 -511 293 -506 298 6 6 499 292 504 292 2 0 122 -68 268 -152z
m-1320 -606 c65 -38 322 -187 571 -331 249 -144 463 -267 477 -273 22 -10 64
13 442 232 230 134 495 288 589 343 l172 99 228 -132 c126 -73 230 -134 232
-135 4 -4 -73 -49 -931 -549 -384 -223 -702 -406 -707 -406 -5 0 -57 28 -117
63 -203 119 -827 479 -1248 722 -132 76 -253 146 -269 155 l-29 18 94 55 c52
30 153 89 224 131 72 41 135 76 142 76 6 0 64 -31 130 -68z"/>
<path d="M1272 3559 c-231 -45 -329 -268 -182 -411 51 -49 89 -64 296 -118 98
-26 137 -54 137 -98 0 -62 -55 -92 -168 -92 -76 0 -164 22 -231 59 l-52 28
-33 -74 c-27 -62 -30 -76 -18 -84 84 -57 193 -84 334 -83 132 0 205 19 271 69
62 47 88 99 92 180 8 153 -58 207 -334 274 -106 26 -151 50 -160 86 -16 65 35
106 141 113 74 5 173 -17 235 -52 24 -14 25 -13 52 51 16 36 28 71 28 77 0 18
-84 54 -165 71 -76 16 -175 18 -243 4z"/>
<path d="M3480 3559 c-72 -14 -185 -75 -238 -129 -163 -166 -163 -444 0 -610
179 -182 515 -184 696 -4 167 168 166 454 -3 619 -112 110 -285 157 -455 124z
m235 -187 c93 -48 145 -136 145 -247 0 -194 -165 -316 -354 -261 -190 55 -250
313 -106 457 32 31 64 53 96 63 65 21 167 15 219 -12z"/>
<path d="M6112 3559 c-231 -45 -329 -268 -182 -411 51 -49 89 -64 296 -118 98
-26 137 -54 137 -98 0 -62 -55 -92 -168 -92 -76 0 -164 22 -231 59 l-52 28
-33 -74 c-27 -62 -30 -76 -18 -84 84 -57 193 -84 334 -83 132 0 205 19 271 69
62 47 88 99 92 180 8 153 -58 207 -334 274 -106 26 -151 50 -160 86 -16 65 35
106 141 113 74 5 173 -17 235 -52 24 -14 25 -13 52 51 16 36 28 71 28 77 0 18
-84 54 -165 71 -76 16 -175 18 -243 4z"/>
<path d="M2010 3125 l0 -435 100 0 100 0 0 261 0 261 216 -261 217 -261 83 0
84 0 0 435 0 435 -100 0 -100 0 -2 -264 -3 -265 -213 265 -214 264 -84 0 -84
0 0 -435z"/>
<path d="M4266 3538 c4 -13 60 -187 126 -388 65 -201 126 -386 134 -412 l16
-48 106 0 107 0 94 278 c51 152 97 280 100 284 4 4 49 -121 101 -277 l95 -285
107 0 106 0 11 33 c17 55 263 811 268 825 4 9 -18 12 -91 12 l-95 0 -97 -297
c-53 -164 -100 -301 -103 -305 -4 -5 -19 29 -33 75 -15 45 -59 182 -98 305
l-71 222 -92 0 -92 0 -100 -300 c-55 -165 -102 -300 -105 -300 -3 0 -48 135
-100 300 l-95 300 -103 0 c-103 0 -103 0 -96 -22z"/>
<path d="M7054 3356 c-102 -25 -194 -100 -238 -195 -16 -36 -21 -65 -21 -136
0 -78 4 -97 28 -146 49 -100 139 -167 255 -189 146 -29 306 27 365 128 l17 30
-72 40 -73 40 -35 -33 c-47 -44 -71 -55 -119 -55 -108 0 -175 71 -174 186 1
114 67 184 174 184 48 0 84 -17 123 -59 l30 -31 65 36 c36 20 69 40 74 44 12
11 -50 88 -93 115 -80 51 -200 67 -306 41z"/>
<path d="M8032 3351 c-29 -10 -69 -33 -88 -52 l-34 -33 0 47 0 47 -90 0 -90 0
0 -335 0 -335 94 0 94 0 4 193 c3 171 5 196 23 227 27 47 96 82 153 78 l42 -3
0 92 0 93 -27 0 c-16 -1 -52 -9 -81 -19z"/>
<path d="M8588 3351 c-97 -32 -168 -96 -211 -188 -17 -38 -22 -66 -22 -138 0
-78 4 -97 28 -147 35 -71 110 -140 185 -169 83 -33 246 -33 316 -1 53 24 116
68 116 80 -1 4 -23 31 -49 60 l-49 53 -36 -25 c-66 -45 -185 -47 -253 -5 -18
12 -43 39 -54 60 l-19 39 255 0 255 0 0 54 c0 138 -74 258 -191 310 -82 37
-190 44 -271 17z m209 -157 c32 -24 59 -60 68 -91 l6 -23 -166 0 c-148 0 -166
2 -161 16 3 9 6 19 6 24 0 17 55 73 85 86 41 20 129 13 162 -12z"/>
<path d="M9528 3351 c-97 -32 -168 -96 -211 -188 -17 -38 -22 -66 -22 -138 0
-78 4 -97 28 -147 35 -71 110 -140 185 -169 83 -33 246 -33 316 -1 53 24 116
68 116 80 -1 4 -23 31 -49 60 l-49 53 -36 -25 c-66 -45 -185 -47 -253 -5 -18
12 -43 39 -54 60 l-19 39 255 0 255 0 0 54 c0 138 -74 258 -191 310 -82 37
-190 44 -271 17z m209 -157 c32 -24 59 -60 68 -91 l6 -23 -166 0 c-148 0 -166
2 -161 16 3 9 6 19 6 24 0 17 55 73 85 86 41 20 129 13 162 -12z"/>
<path d="M10595 3361 c-40 -10 -95 -39 -122 -64 l-23 -20 0 41 0 42 -90 0 -90
0 0 -335 0 -335 94 0 95 0 3 204 c3 189 5 207 24 233 50 68 124 90 199 59 62
-26 70 -55 73 -288 l3 -208 96 0 95 0 -4 238 c-5 274 -12 305 -83 371 -65 60
-174 85 -270 62z"/>
</g>
</svg>
